<svg width="602" height="600" viewBox="0 0 602 600" fill="none" xmlns="http://www.w3.org/2000/svg">
<path opacity="0.24" d="M301 520.091C448.42 520.091 567.927 417.18 567.927 290.233C567.927 163.285 448.42 60.3741 301 60.3741C153.58 60.3741 34.0732 163.285 34.0732 290.233C34.0732 417.18 153.58 520.091 301 520.091Z" fill="#24285B"/>
<path d="M501.863 138.288L469.933 159.792L297.424 72.5504L140.711 381.44L88.1448 416.827L100.486 460.712L317.278 570.335L514.204 182.173L501.863 138.288Z" fill="#24285B"/>
<path d="M501.884 138.275L285.087 28.6598L88.1708 416.829L304.968 526.444L501.884 138.275Z" fill="#9796F0"/>
<path d="M460.013 172.714L280.574 81.9871L141.994 355.161L321.434 445.887L460.013 172.714Z" fill="white"/>
<path opacity="0.56" d="M215.335 459.955C228.468 459.955 239.114 449.326 239.114 436.215C239.114 423.104 228.468 412.476 215.335 412.476C202.203 412.476 191.556 423.104 191.556 436.215C191.556 449.326 202.203 459.955 215.335 459.955Z" fill="white"/>
<path opacity="0.12" d="M428.231 120.096L367.447 89.3636L362.959 98.2103L423.743 128.943L428.231 120.096Z" fill="#FBC7D4"/>
<path d="M342.682 94.7153C348.813 94.7153 353.783 89.7535 353.783 83.6328C353.783 77.5122 348.813 72.5504 342.682 72.5504C336.552 72.5504 331.582 77.5122 331.582 83.6328C331.582 89.7535 336.552 94.7153 342.682 94.7153Z" fill="white"/>
<path opacity="0.05" d="M222.066 197.294L451.909 188.664L376.924 337.543L153.438 332.543L222.066 197.294Z" fill="#FBC7D4"/>
<path d="M514.063 192.614L415.545 144.069L378.323 219.357L476.841 267.902L514.063 192.614Z" fill="#24285B"/>
<path d="M477.11 201.067L431.289 178.488L415.265 210.899L461.086 233.478L477.11 201.067Z" fill="#FBC7D4"/>
<path d="M443.481 193.279L435.198 210.047L457.749 210.384L443.481 193.279Z" fill="white"/>
<path d="M256.786 238.251L146.932 184.119L105.425 268.074L215.279 322.205L256.786 238.251Z" fill="#24285B"/>
<path d="M175.64 244.064C175.64 244.064 191.34 252.418 201.249 241.191C203.825 238.27 208.737 239.388 209.616 243.174C210.134 245.41 209.713 248.259 207.184 251.793C199.84 262.046 204.897 258.981 209.689 265.64C214.481 272.287 193.603 286.326 183.851 280.508C174.098 274.691 179.3 265.291 166.224 263.127L175.652 244.064H175.64Z" fill="white"/>
<path d="M181.834 242.586L158.146 230.914L145.511 256.47L169.199 268.142L181.834 242.586Z" fill="#FBC7D4"/>
<path d="M319.828 95.8998L216.204 44.8377L177.052 124.028L280.677 175.09L319.828 95.8998Z" fill="#24285B"/>
<path d="M278.079 104.602L234.698 83.2264L218.823 115.336L262.204 136.712L278.079 104.602Z" fill="white"/>
<path d="M234.684 83.2241L244.845 117.253L278.064 104.608L234.684 83.2241Z" fill="#68E1FD"/>
<path d="M447.896 357.935L341.41 305.463L301.177 386.841L407.663 439.313L447.896 357.935Z" fill="#24285B"/>
<path d="M393.263 359.107C390.903 357.941 388.374 357.629 385.738 358.158C383.209 358.662 381.102 359.864 379.742 360.826C379.669 359.167 379.344 356.763 378.213 354.455C377.033 352.039 375.239 350.224 372.879 349.07C366.293 345.825 358.672 348.758 355.144 355.886C351.339 363.591 354.927 371.921 360.357 384.517C361.284 386.657 362.332 389.085 363.391 391.645C363.536 391.982 363.789 392.258 364.126 392.427C364.463 392.595 364.836 392.631 365.185 392.535C367.87 391.826 370.435 391.177 372.698 390.6C386.026 387.246 394.828 385.022 398.632 377.317C402.16 370.19 399.848 362.353 393.263 359.107Z" fill="#68E1FD"/>
</svg>
